# MagicaVoxel @ Ephtracy

# group
o 

# material
mtllib player.mtl
usemtl palette

# normals
vn -1 0 0
vn 1 0 0
vn 0 0 1
vn 0 0 -1
vn 0 -1 0
vn 0 1 0

# texcoords
vt 0.970703 0.5
vt 0.974609 0.5
vt 0.978516 0.5
vt 0.982422 0.5

# verts
v -1.1 1.1 0.9
v -1.1 1.1 0.6
v -1.1 1.9 0.9
v -1.1 1.9 0.6
v -0.9 0.5 1
v -0.9 0.5 0.5
v -0.9 0.6 1
v -0.9 0.6 0.5
v -0.9 1.4 1
v -0.9 1.4 0.9
v -0.9 1.4 0.6
v -0.9 1.4 0.5
v -0.9 1.9 0.9
v -0.9 1.9 0.6
v -0.9 2 1
v -0.9 2 0.5
v -0.8 0.3 1.1
v -0.8 0.3 0.5
v -0.8 0.5 1.1
v -0.8 0.5 1
v -0.8 0.5 0.5
v -0.8 0.6 1
v -0.8 0.6 0.5
v -0.8 1.2 1.1
v -0.8 1.2 1
v -0.8 1.2 0.5
v -0.8 1.4 1
v -0.8 1.4 0.5
v -0.8 2 1
v -0.8 2 0.5
v -0.8 2.1 1.1
v -0.8 2.1 0.5
v -0.7 2.3 0.8
v -0.7 2.3 0.7
v -0.7 2.5 0.8
v -0.7 2.5 0.7
v -0.7 2.6 1
v -0.7 2.6 0.6
v -0.7 2.8 1
v -0.7 2.8 0.6
v -0.6 2.1 1
v -0.6 2.1 0.6
v -0.6 2.3 0.8
v -0.6 2.3 0.7
v -0.6 2.5 0.8
v -0.6 2.5 0.7
v -0.6 2.6 1
v -0.6 2.6 0.6
v -0.2 0.5 1
v -0.2 0.5 0.5
v -0.2 0.8 1
v -0.2 0.8 0.5
v -0.1 0.3 1.1
v -0.1 0.3 0.5
v -0.1 0.5 1.1
v -0.1 0.5 1
v -0.1 0.5 0.5
v 0.3 1.1 0.9
v 0.3 1.1 0.6
v 0.3 1.4 0.9
v 0.3 1.4 0.6
v -0.9 1.1 0.9
v -0.9 1.1 0.6
v -0.9 1.4 0.9
v -0.9 1.4 0.6
v -0.5 0.3 1.1
v -0.5 0.3 0.5
v -0.5 0.5 1.1
v -0.5 0.5 1
v -0.5 0.5 0.5
v -0.4 0.5 1
v -0.4 0.5 0.5
v -0.4 0.8 1
v -0.4 0.8 0.5
v 0 2.1 1
v 0 2.1 0.6
v 0 2.3 0.8
v 0 2.3 0.7
v 0 2.5 0.8
v 0 2.5 0.7
v 0 2.6 1
v 0 2.6 0.6
v 0.1 2.3 0.8
v 0.1 2.3 0.7
v 0.1 2.5 0.8
v 0.1 2.5 0.7
v 0.1 2.6 1
v 0.1 2.6 0.6
v 0.1 2.8 1
v 0.1 2.8 0.6
v 0.2 0.3 1.1
v 0.2 0.3 0.5
v 0.2 0.5 1.1
v 0.2 0.5 1
v 0.2 0.5 0.5
v 0.2 0.6 1
v 0.2 0.6 0.5
v 0.2 1.2 1.1
v 0.2 1.2 1
v 0.2 1.2 0.5
v 0.2 1.4 1
v 0.2 1.4 0.5
v 0.2 2 1
v 0.2 2 0.5
v 0.2 2.1 1.1
v 0.2 2.1 0.5
v 0.3 0.5 1
v 0.3 0.5 0.5
v 0.3 0.6 1
v 0.3 0.6 0.5
v 0.3 1.4 1
v 0.3 1.4 0.9
v 0.3 1.4 0.6
v 0.3 1.4 0.5
v 0.3 1.9 0.9
v 0.3 1.9 0.6
v 0.3 2 1
v 0.3 2 0.5
v 0.5 1.1 0.9
v 0.5 1.1 0.6
v 0.5 1.9 0.9
v 0.5 1.9 0.6
v -0.8 0.3 1.1
v -0.8 0.5 1.1
v -0.8 1.2 1.1
v -0.8 2.1 1.1
v -0.5 0.3 1.1
v -0.5 0.5 1.1
v -0.1 0.3 1.1
v -0.1 0.5 1.1
v 0.2 0.3 1.1
v 0.2 0.5 1.1
v 0.2 1.2 1.1
v 0.2 2.1 1.1
v -0.9 0.5 1
v -0.9 0.6 1
v -0.9 1.4 1
v -0.9 2 1
v -0.8 0.5 1
v -0.8 0.6 1
v -0.8 1.2 1
v -0.8 1.4 1
v -0.8 2 1
v -0.7 2.6 1
v -0.7 2.8 1
v -0.6 2.1 1
v -0.6 2.6 1
v -0.5 0.5 1
v -0.5 2.4 1
v -0.5 2.5 1
v -0.4 0.5 1
v -0.4 0.8 1
v -0.4 2.2 1
v -0.4 2.3 1
v -0.4 2.4 1
v -0.4 2.5 1
v -0.2 0.5 1
v -0.2 0.8 1
v -0.2 2.2 1
v -0.2 2.3 1
v -0.2 2.4 1
v -0.2 2.5 1
v -0.1 0.5 1
v -0.1 2.4 1
v -0.1 2.5 1
v 0 2.1 1
v 0 2.6 1
v 0.1 2.6 1
v 0.1 2.8 1
v 0.2 0.5 1
v 0.2 0.6 1
v 0.2 1.2 1
v 0.2 1.4 1
v 0.2 2 1
v 0.3 0.5 1
v 0.3 0.6 1
v 0.3 1.4 1
v 0.3 2 1
v -1.1 1.1 0.9
v -1.1 1.9 0.9
v -0.9 1.1 0.9
v -0.9 1.4 0.9
v -0.9 1.9 0.9
v 0.3 1.1 0.9
v 0.3 1.4 0.9
v 0.3 1.9 0.9
v 0.5 1.1 0.9
v 0.5 1.9 0.9
v -0.7 2.3 0.8
v -0.7 2.5 0.8
v -0.6 2.3 0.8
v -0.6 2.5 0.8
v 0 2.3 0.8
v 0 2.5 0.8
v 0.1 2.3 0.8
v 0.1 2.5 0.8
v -0.7 2.3 0.7
v -0.7 2.5 0.7
v -0.6 2.3 0.7
v -0.6 2.5 0.7
v 0 2.3 0.7
v 0 2.5 0.7
v 0.1 2.3 0.7
v 0.1 2.5 0.7
v -1.1 1.1 0.6
v -1.1 1.9 0.6
v -0.9 1.1 0.6
v -0.9 1.4 0.6
v -0.9 1.9 0.6
v -0.7 2.6 0.6
v -0.7 2.8 0.6
v -0.6 2.1 0.6
v -0.6 2.6 0.6
v 0 2.1 0.6
v 0 2.6 0.6
v 0.1 2.6 0.6
v 0.1 2.8 0.6
v 0.3 1.1 0.6
v 0.3 1.4 0.6
v 0.3 1.9 0.6
v 0.5 1.1 0.6
v 0.5 1.9 0.6
v -0.9 0.5 0.5
v -0.9 0.6 0.5
v -0.9 1.4 0.5
v -0.9 2 0.5
v -0.8 0.3 0.5
v -0.8 0.5 0.5
v -0.8 0.6 0.5
v -0.8 1.2 0.5
v -0.8 1.4 0.5
v -0.8 2 0.5
v -0.8 2.1 0.5
v -0.5 0.3 0.5
v -0.5 0.5 0.5
v -0.4 0.5 0.5
v -0.4 0.8 0.5
v -0.2 0.5 0.5
v -0.2 0.8 0.5
v -0.1 0.3 0.5
v -0.1 0.5 0.5
v 0.2 0.3 0.5
v 0.2 0.5 0.5
v 0.2 0.6 0.5
v 0.2 1.2 0.5
v 0.2 1.4 0.5
v 0.2 2 0.5
v 0.2 2.1 0.5
v 0.3 0.5 0.5
v 0.3 0.6 0.5
v 0.3 1.4 0.5
v 0.3 2 0.5
v -0.8 0.3 1.1
v -0.5 0.3 1.1
v -0.1 0.3 1.1
v 0.2 0.3 1.1
v -0.8 0.3 0.5
v -0.5 0.3 0.5
v -0.1 0.3 0.5
v 0.2 0.3 0.5
v -0.9 0.5 1
v -0.8 0.5 1
v -0.5 0.5 1
v -0.4 0.5 1
v -0.2 0.5 1
v -0.1 0.5 1
v 0.2 0.5 1
v 0.3 0.5 1
v -0.9 0.5 0.5
v -0.8 0.5 0.5
v -0.5 0.5 0.5
v -0.4 0.5 0.5
v -0.2 0.5 0.5
v -0.1 0.5 0.5
v 0.2 0.5 0.5
v 0.3 0.5 0.5
v -0.4 0.8 1
v -0.2 0.8 1
v -0.4 0.8 0.5
v -0.2 0.8 0.5
v -1.1 1.1 0.9
v -0.9 1.1 0.9
v 0.3 1.1 0.9
v 0.5 1.1 0.9
v -1.1 1.1 0.6
v -0.9 1.1 0.6
v 0.3 1.1 0.6
v 0.5 1.1 0.6
v -0.8 1.2 1.1
v 0.2 1.2 1.1
v -0.8 1.2 1
v 0.2 1.2 1
v -0.9 1.4 1
v -0.8 1.4 1
v 0.2 1.4 1
v 0.3 1.4 1
v -0.9 1.4 0.9
v 0.3 1.4 0.9
v -0.9 1.4 0.6
v 0.3 1.4 0.6
v -0.9 1.4 0.5
v -0.8 1.4 0.5
v 0.2 1.4 0.5
v 0.3 1.4 0.5
v -0.7 2.3 0.8
v -0.6 2.3 0.8
v 0 2.3 0.8
v 0.1 2.3 0.8
v -0.7 2.3 0.7
v -0.6 2.3 0.7
v 0 2.3 0.7
v 0.1 2.3 0.7
v -0.7 2.6 1
v -0.6 2.6 1
v 0 2.6 1
v 0.1 2.6 1
v -0.7 2.6 0.6
v -0.6 2.6 0.6
v 0 2.6 0.6
v 0.1 2.6 0.6
v -0.8 0.5 1.1
v -0.5 0.5 1.1
v -0.1 0.5 1.1
v 0.2 0.5 1.1
v -0.8 0.5 1
v -0.5 0.5 1
v -0.1 0.5 1
v 0.2 0.5 1
v -0.9 0.6 1
v -0.8 0.6 1
v 0.2 0.6 1
v 0.3 0.6 1
v -0.9 0.6 0.5
v -0.8 0.6 0.5
v 0.2 0.6 0.5
v 0.3 0.6 0.5
v -1.1 1.9 0.9
v -0.9 1.9 0.9
v 0.3 1.9 0.9
v 0.5 1.9 0.9
v -1.1 1.9 0.6
v -0.9 1.9 0.6
v 0.3 1.9 0.6
v 0.5 1.9 0.6
v -0.9 2 1
v -0.8 2 1
v 0.2 2 1
v 0.3 2 1
v -0.9 2 0.5
v -0.8 2 0.5
v 0.2 2 0.5
v 0.3 2 0.5
v -0.8 2.1 1.1
v 0.2 2.1 1.1
v -0.6 2.1 1
v 0 2.1 1
v -0.6 2.1 0.6
v 0 2.1 0.6
v -0.8 2.1 0.5
v 0.2 2.1 0.5
v -0.7 2.5 0.8
v -0.6 2.5 0.8
v 0 2.5 0.8
v 0.1 2.5 0.8
v -0.7 2.5 0.7
v -0.6 2.5 0.7
v 0 2.5 0.7
v 0.1 2.5 0.7
v -0.7 2.8 1
v 0.1 2.8 1
v -0.7 2.8 0.6
v 0.1 2.8 0.6

# faces
f 3/1/1 2/1/1 1/1/1
f 4/1/1 2/1/1 3/1/1
f 7/2/1 6/2/1 5/2/1
f 8/2/1 6/2/1 7/2/1
f 13/4/1 10/4/1 9/4/1
f 14/4/1 12/4/1 11/4/1
f 15/4/1 13/4/1 9/4/1
f 15/4/1 14/4/1 13/4/1
f 16/4/1 12/4/1 14/4/1
f 16/4/1 14/4/1 15/4/1
f 19/3/1 18/3/1 17/3/1
f 20/3/1 18/3/1 19/3/1
f 21/3/1 18/3/1 20/3/1
f 25/2/1 23/2/1 22/2/1
f 26/2/1 23/2/1 25/2/1
f 27/4/1 25/4/1 24/4/1
f 27/4/1 26/4/1 25/4/1
f 28/4/1 26/4/1 27/4/1
f 29/4/1 27/4/1 24/4/1
f 31/4/1 29/4/1 24/4/1
f 31/4/1 30/4/1 29/4/1
f 32/4/1 30/4/1 31/4/1
f 35/1/1 34/1/1 33/1/1
f 36/1/1 34/1/1 35/1/1
f 39/3/1 38/3/1 37/3/1
f 40/3/1 38/3/1 39/3/1
f 43/1/1 42/1/1 41/1/1
f 44/1/1 42/1/1 43/1/1
f 45/1/1 43/1/1 41/1/1
f 46/1/1 42/1/1 44/1/1
f 47/1/1 45/1/1 41/1/1
f 47/1/1 46/1/1 45/1/1
f 48/1/1 42/1/1 46/1/1
f 48/1/1 46/1/1 47/1/1
f 51/2/1 50/2/1 49/2/1
f 52/2/1 50/2/1 51/2/1
f 55/3/1 54/3/1 53/3/1
f 56/3/1 54/3/1 55/3/1
f 57/3/1 54/3/1 56/3/1
f 60/1/1 59/1/1 58/1/1
f 61/1/1 59/1/1 60/1/1
f 62/1/2 63/1/2 64/1/2
f 64/1/2 63/1/2 65/1/2
f 66/3/2 67/3/2 68/3/2
f 68/3/2 67/3/2 69/3/2
f 69/3/2 67/3/2 70/3/2
f 71/2/2 72/2/2 73/2/2
f 73/2/2 72/2/2 74/2/2
f 75/1/2 76/1/2 77/1/2
f 77/1/2 76/1/2 78/1/2
f 75/1/2 77/1/2 79/1/2
f 78/1/2 76/1/2 80/1/2
f 75/1/2 79/1/2 81/1/2
f 79/1/2 80/1/2 81/1/2
f 80/1/2 76/1/2 82/1/2
f 81/1/2 80/1/2 82/1/2
f 83/1/2 84/1/2 85/1/2
f 85/1/2 84/1/2 86/1/2
f 87/3/2 88/3/2 89/3/2
f 89/3/2 88/3/2 90/3/2
f 91/3/2 92/3/2 93/3/2
f 93/3/2 92/3/2 94/3/2
f 94/3/2 92/3/2 95/3/2
f 96/2/2 97/2/2 99/2/2
f 99/2/2 97/2/2 100/2/2
f 98/4/2 99/4/2 101/4/2
f 99/4/2 100/4/2 101/4/2
f 101/4/2 100/4/2 102/4/2
f 98/4/2 101/4/2 103/4/2
f 98/4/2 103/4/2 105/4/2
f 103/4/2 104/4/2 105/4/2
f 105/4/2 104/4/2 106/4/2
f 107/2/2 108/2/2 109/2/2
f 109/2/2 108/2/2 110/2/2
f 111/4/2 112/4/2 115/4/2
f 113/4/2 114/4/2 116/4/2
f 111/4/2 115/4/2 117/4/2
f 115/4/2 116/4/2 117/4/2
f 116/4/2 114/4/2 118/4/2
f 117/4/2 116/4/2 118/4/2
f 119/1/2 120/1/2 121/1/2
f 121/1/2 120/1/2 122/1/2
f 127/3/3 124/3/3 123/3/3
f 128/3/3 124/3/3 127/3/3
f 131/3/3 130/3/3 129/3/3
f 132/3/3 130/3/3 131/3/3
f 133/4/3 126/4/3 125/4/3
f 134/4/3 126/4/3 133/4/3
f 139/2/3 136/2/3 135/2/3
f 140/2/3 136/2/3 139/2/3
f 142/4/3 138/4/3 137/4/3
f 143/4/3 138/4/3 142/4/3
f 147/3/3 145/3/3 144/3/3
f 148/2/3 141/2/3 140/2/3
f 148/2/3 140/2/3 139/2/3
f 149/1/3 147/1/3 146/1/3
f 150/1/3 147/1/3 149/1/3
f 151/2/3 141/2/3 148/2/3
f 152/2/3 141/2/3 151/2/3
f 153/1/3 149/1/3 146/1/3
f 154/1/3 149/1/3 153/1/3
f 155/3/3 150/3/3 149/3/3
f 155/1/3 149/1/3 154/1/3
f 156/1/3 147/1/3 150/1/3
f 156/3/3 150/3/3 155/3/3
f 158/2/3 141/2/3 152/2/3
f 159/2/3 154/2/3 153/2/3
f 159/1/3 153/1/3 146/1/3
f 160/1/3 155/1/3 154/1/3
f 160/2/3 154/2/3 159/2/3
f 160/1/3 156/1/3 155/1/3
f 161/1/3 156/1/3 160/1/3
f 162/1/3 147/1/3 156/1/3
f 162/1/3 156/1/3 161/1/3
f 163/2/3 158/2/3 157/2/3
f 164/1/3 161/1/3 160/1/3
f 164/1/3 160/1/3 159/1/3
f 164/3/3 162/3/3 161/3/3
f 165/1/3 147/1/3 162/1/3
f 165/3/3 162/3/3 164/3/3
f 166/1/3 159/1/3 146/1/3
f 166/1/3 164/1/3 159/1/3
f 166/1/3 165/1/3 164/1/3
f 167/1/3 147/1/3 165/1/3
f 167/1/3 165/1/3 166/1/3
f 167/3/3 145/3/3 147/3/3
f 168/3/3 145/3/3 167/3/3
f 169/3/3 145/3/3 168/3/3
f 170/2/3 158/2/3 163/2/3
f 171/2/3 158/2/3 170/2/3
f 172/2/3 141/2/3 158/2/3
f 172/2/3 158/2/3 171/2/3
f 175/2/3 171/2/3 170/2/3
f 176/2/3 171/2/3 175/2/3
f 177/4/3 174/4/3 173/4/3
f 178/4/3 174/4/3 177/4/3
f 181/1/3 180/1/3 179/1/3
f 182/1/3 180/1/3 181/1/3
f 183/1/3 180/1/3 182/1/3
f 187/1/3 185/1/3 184/1/3
f 187/1/3 186/1/3 185/1/3
f 188/1/3 186/1/3 187/1/3
f 191/1/3 190/1/3 189/1/3
f 192/1/3 190/1/3 191/1/3
f 195/1/3 194/1/3 193/1/3
f 196/1/3 194/1/3 195/1/3
f 197/1/4 198/1/4 199/1/4
f 199/1/4 198/1/4 200/1/4
f 201/1/4 202/1/4 203/1/4
f 203/1/4 202/1/4 204/1/4
f 205/1/4 206/1/4 207/1/4
f 207/1/4 206/1/4 208/1/4
f 208/1/4 206/1/4 209/1/4
f 210/3/4 211/3/4 213/3/4
f 212/1/4 213/1/4 214/1/4
f 213/3/4 211/3/4 215/3/4
f 214/1/4 213/1/4 215/1/4
f 215/3/4 211/3/4 216/3/4
f 216/3/4 211/3/4 217/3/4
f 218/1/4 219/1/4 221/1/4
f 219/1/4 220/1/4 221/1/4
f 221/1/4 220/1/4 222/1/4
f 223/2/4 224/2/4 228/2/4
f 228/2/4 224/2/4 229/2/4
f 225/4/4 226/4/4 231/4/4
f 231/4/4 226/4/4 232/4/4
f 227/3/4 228/3/4 234/3/4
f 229/2/4 230/2/4 235/2/4
f 234/3/4 228/3/4 235/3/4
f 228/2/4 229/2/4 235/2/4
f 235/2/4 230/2/4 236/2/4
f 236/2/4 230/2/4 237/2/4
f 237/2/4 230/2/4 239/2/4
f 238/2/4 239/2/4 241/2/4
f 240/3/4 241/3/4 242/3/4
f 241/2/4 239/2/4 243/2/4
f 242/3/4 241/3/4 243/3/4
f 243/2/4 239/2/4 244/2/4
f 232/4/4 233/4/4 245/4/4
f 244/2/4 239/2/4 245/2/4
f 231/4/4 232/4/4 245/4/4
f 230/4/4 231/4/4 245/4/4
f 239/2/4 230/2/4 245/2/4
f 245/4/4 233/4/4 246/4/4
f 246/4/4 233/4/4 247/4/4
f 247/4/4 233/4/4 248/4/4
f 243/2/4 244/2/4 249/2/4
f 249/2/4 244/2/4 250/2/4
f 246/4/4 247/4/4 251/4/4
f 251/4/4 247/4/4 252/4/4
f 257/3/5 254/3/5 253/3/5
f 258/3/5 254/3/5 257/3/5
f 259/3/5 256/3/5 255/3/5
f 260/3/5 256/3/5 259/3/5
f 269/2/5 262/2/5 261/2/5
f 270/2/5 262/2/5 269/2/5
f 271/2/5 264/2/5 263/2/5
f 272/2/5 264/2/5 271/2/5
f 273/2/5 266/2/5 265/2/5
f 274/2/5 266/2/5 273/2/5
f 275/2/5 268/2/5 267/2/5
f 276/2/5 268/2/5 275/2/5
f 279/2/5 278/2/5 277/2/5
f 280/2/5 278/2/5 279/2/5
f 285/1/5 282/1/5 281/1/5
f 286/1/5 282/1/5 285/1/5
f 287/1/5 284/1/5 283/1/5
f 288/1/5 284/1/5 287/1/5
f 291/4/5 290/4/5 289/4/5
f 292/4/5 290/4/5 291/4/5
f 297/4/5 294/4/5 293/4/5
f 298/4/5 296/4/5 295/4/5
f 299/4/5 294/4/5 297/4/5
f 300/4/5 298/4/5 295/4/5
f 301/4/5 294/4/5 299/4/5
f 302/4/5 294/4/5 301/4/5
f 303/4/5 300/4/5 295/4/5
f 304/4/5 300/4/5 303/4/5
f 309/1/5 306/1/5 305/1/5
f 310/1/5 306/1/5 309/1/5
f 311/1/5 308/1/5 307/1/5
f 312/1/5 308/1/5 311/1/5
f 317/3/5 314/3/5 313/3/5
f 318/3/5 314/3/5 317/3/5
f 319/3/5 316/3/5 315/3/5
f 320/3/5 316/3/5 319/3/5
f 321/3/6 322/3/6 325/3/6
f 325/3/6 322/3/6 326/3/6
f 323/3/6 324/3/6 327/3/6
f 327/3/6 324/3/6 328/3/6
f 329/2/6 330/2/6 333/2/6
f 333/2/6 330/2/6 334/2/6
f 331/2/6 332/2/6 335/2/6
f 335/2/6 332/2/6 336/2/6
f 337/1/6 338/1/6 341/1/6
f 341/1/6 338/1/6 342/1/6
f 339/1/6 340/1/6 343/1/6
f 343/1/6 340/1/6 344/1/6
f 345/4/6 346/4/6 349/4/6
f 349/4/6 346/4/6 350/4/6
f 347/4/6 348/4/6 351/4/6
f 351/4/6 348/4/6 352/4/6
f 353/4/6 354/4/6 355/4/6
f 355/4/6 354/4/6 356/4/6
f 353/4/6 355/4/6 357/4/6
f 356/4/6 354/4/6 358/4/6
f 353/4/6 357/4/6 359/4/6
f 357/4/6 358/4/6 359/4/6
f 358/4/6 354/4/6 360/4/6
f 359/4/6 358/4/6 360/4/6
f 361/1/6 362/1/6 365/1/6
f 365/1/6 362/1/6 366/1/6
f 363/1/6 364/1/6 367/1/6
f 367/1/6 364/1/6 368/1/6
f 369/3/6 370/3/6 371/3/6
f 371/3/6 370/3/6 372/3/6
